ffmpeg version 4.3.6-0+deb11u1+rpt3 Copyright (c) 2000-2023 the FFmpeg developers
  built with gcc 10 (Debian 10.2.1-6)
  configuration: --prefix=/usr --extra-version=0+deb11u1+rpt3 --toolchain=hardened --incdir=/usr/include/aarch64-linux-gnu --enable-gpl --disable-stripping --enable-avresample --disable-filter=resample --enable-gnutls --enable-ladspa --enable-libaom --enable-libass --enable-libbluray --enable-libbs2b --enable-libcaca --enable-libcdio --enable-libcodec2 --enable-libdav1d --enable-libflite --enable-libfontconfig --enable-libfreetype --enable-libfribidi --enable-libgme --enable-libgsm --enable-libjack --enable-libmp3lame --enable-libmysofa --enable-libopenjpeg --enable-libopenmpt --enable-libopus --enable-libpulse --enable-librabbitmq --enable-librsvg --enable-librubberband --enable-libshine --enable-libsnappy --enable-libsoxr --enable-libspeex --enable-libsrt --enable-libssh --enable-libtheora --enable-libtwolame --enable-libvidstab --enable-libvorbis --enable-libvpx --enable-libwavpack --enable-libwebp --enable-libx265 --enable-libxml2 --enable-libxvid --enable-libzmq --enable-libzvbi --enable-lv2 --enable-omx --enable-openal --enable-opencl --enable-opengl --enable-sdl2 --disable-mmal --enable-neon --enable-v4l2-request --enable-libudev --enable-epoxy --enable-sand --libdir=/usr/lib/aarch64-linux-gnu --arch=arm64 --enable-pocketsphinx --enable-libdc1394 --enable-libdrm --enable-vout-drm --enable-libiec61883 --enable-chromaprint --enable-frei0r --enable-libx264 --enable-shared
  libavutil      56. 51.100 / 56. 51.100
  libavcodec     58. 91.100 / 58. 91.100
  libavformat    58. 45.100 / 58. 45.100
  libavdevice    58. 10.100 / 58. 10.100
  libavfilter     7. 85.100 /  7. 85.100
  libavresample   4.  0.  0 /  4.  0.  0
  libswscale      5.  7.100 /  5.  7.100
  libswresample   3.  7.100 /  3.  7.100
  libpostproc    55.  7.100 / 55.  7.100
Input #0, rtsp, from 'rtsp://user:password@192.168.0.15:554/live/ch1':
  Metadata:
    title           : streamed by RTSP server
  Duration: N/A, start: 0.000000, bitrate: N/A
    Stream #0:0: Video: h264 (High), yuv420p(tv, bt709, progressive), 640x360, 15 fps, 15 tbr, 90k tbn, 30 tbc
    Stream #0:1: Audio: aac (LC), 8000 Hz, mono, fltp
Stream mapping:
  Stream #0:0 -> #0:0 (h264 (native) -> h264 (libx264))
  Stream #0:1 -> #0:1 (copy)
Press [q] to stop, [?] for help
[libx264 @ 0xaaaadf39e910] VBV bufsize set but maxrate unspecified, ignored
[libx264 @ 0xaaaadf39e910] using cpu capabilities: ARMv8 NEON
[libx264 @ 0xaaaadf39e910] profile Constrained Baseline, level 2.2, 4:2:0, 8-bit
[libx264 @ 0xaaaadf39e910] 264 - core 160 r3011 cde9a93 - H.264/MPEG-4 AVC codec - Copyleft 2003-2020 - http://www.videolan.org/x264.html - options: cabac=0 ref=1 deblock=0:0:0 analyse=0:0 me=dia subme=0 psy=1 psy_rd=1.00:0.00 mixed_ref=0 me_range=16 chroma_me=1 trellis=0 8x8dct=0 cqm=0 deadzone=21,11 fast_pskip=1 chroma_qp_offset=0 threads=4 lookahead_threads=4 sliced_threads=1 slices=4 nr=0 decimate=1 interlaced=0 bluray_compat=0 constrained_intra=0 bframes=0 weightp=0 keyint=30 keyint_min=3 scenecut=0 intra_refresh=0 rc=crf mbtree=0 crf=23.0 qcomp=0.60 qpmin=0 qpmax=69 qpstep=4 ip_ratio=1.40 aq=0
Output #0, flv, to 'rtmp://127.0.0.1/live/mystream':
  Metadata:
    title           : streamed by RTSP server
    encoder         : Lavf58.45.100
    Stream #0:0: Video: h264 (libx264) ([7][0][0][0] / 0x0007), yuv420p, 640x360, q=-1--1, 15 fps, 1k tbn, 15 tbc
    Metadata:
      encoder         : Lavc58.91.100 libx264
    Side data:
      cpb: bitrate max/min/avg: 0/0/0 buffer size: 500000 vbv_delay: N/A
    Stream #0:1: Audio: aac (LC) ([10][0][0][0] / 0x000A), 8000 Hz, mono, fltp
frame=   30 fps=0.0 q=10.0 size=      40kB time=00:00:02.70 bitrate= 121.8kbits/s dup=0 drop=5 speed= 5.1x    frame=   37 fps= 35 q=11.0 size=      70kB time=00:00:03.18 bitrate= 178.9kbits/s dup=0 drop=5 speed=3.04x    frame=   46 fps= 30 q=11.0 size=      88kB time=00:00:03.70 bitrate= 194.0kbits/s dup=0 drop=5 speed=2.38x    frame=   54 fps= 26 q=10.0 size=      95kB time=00:00:04.22 bitrate= 183.7kbits/s dup=0 drop=5 speed=2.03x    frame=   62 fps= 24 q=18.0 size=     125kB time=00:00:04.74 bitrate= 215.7kbits/s dup=0 drop=5 speed=1.81x    frame=   70 fps= 22 q=11.0 size=     126kB time=00:00:05.26 bitrate= 196.6kbits/s dup=0 drop=5 speed=1.67x    [flv @ 0xaaaadf394120] Failed to update header with correct duration.
[flv @ 0xaaaadf394120] Failed to update header with correct filesize.
frame=   73 fps= 21 q=10.0 Lsize=     127kB time=00:00:05.50 bitrate= 189.4kbits/s dup=0 drop=5 speed=1.61x    
video:124kB audio:0kB subtitle:0kB other streams:0kB global headers:0kB muxing overhead: 2.260384%
[libx264 @ 0xaaaadf39e910] frame I:3     Avg QP:12.00  size: 22975
[libx264 @ 0xaaaadf39e910] frame P:70    Avg QP:11.47  size:   824
[libx264 @ 0xaaaadf39e910] mb I  I16..4: 100.0%  0.0%  0.0%
[libx264 @ 0xaaaadf39e910] mb P  I16..4:  1.1%  0.0%  0.0%  P16..4: 14.7%  0.0%  0.0%  0.0%  0.0%    skip:84.3%
[libx264 @ 0xaaaadf39e910] coded y,uvDC,uvAC intra: 55.6% 42.1% 16.1% inter: 5.3% 2.7% 0.4%
[libx264 @ 0xaaaadf39e910] i16 v,h,dc,p: 32% 26% 15% 28%
[libx264 @ 0xaaaadf39e910] i8c dc,h,v,p: 66% 12% 18%  4%
[libx264 @ 0xaaaadf39e910] kb/s:208.16
Exiting normally, received signal 2.
ffmpeg version 4.3.6-0+deb11u1+rpt3 Copyright (c) 2000-2023 the FFmpeg developers
  built with gcc 10 (Debian 10.2.1-6)
  configuration: --prefix=/usr --extra-version=0+deb11u1+rpt3 --toolchain=hardened --incdir=/usr/include/aarch64-linux-gnu --enable-gpl --disable-stripping --enable-avresample --disable-filter=resample --enable-gnutls --enable-ladspa --enable-libaom --enable-libass --enable-libbluray --enable-libbs2b --enable-libcaca --enable-libcdio --enable-libcodec2 --enable-libdav1d --enable-libflite --enable-libfontconfig --enable-libfreetype --enable-libfribidi --enable-libgme --enable-libgsm --enable-libjack --enable-libmp3lame --enable-libmysofa --enable-libopenjpeg --enable-libopenmpt --enable-libopus --enable-libpulse --enable-librabbitmq --enable-librsvg --enable-librubberband --enable-libshine --enable-libsnappy --enable-libsoxr --enable-libspeex --enable-libsrt --enable-libssh --enable-libtheora --enable-libtwolame --enable-libvidstab --enable-libvorbis --enable-libvpx --enable-libwavpack --enable-libwebp --enable-libx265 --enable-libxml2 --enable-libxvid --enable-libzmq --enable-libzvbi --enable-lv2 --enable-omx --enable-openal --enable-opencl --enable-opengl --enable-sdl2 --disable-mmal --enable-neon --enable-v4l2-request --enable-libudev --enable-epoxy --enable-sand --libdir=/usr/lib/aarch64-linux-gnu --arch=arm64 --enable-pocketsphinx --enable-libdc1394 --enable-libdrm --enable-vout-drm --enable-libiec61883 --enable-chromaprint --enable-frei0r --enable-libx264 --enable-shared
  libavutil      56. 51.100 / 56. 51.100
  libavcodec     58. 91.100 / 58. 91.100
  libavformat    58. 45.100 / 58. 45.100
  libavdevice    58. 10.100 / 58. 10.100
  libavfilter     7. 85.100 /  7. 85.100
  libavresample   4.  0.  0 /  4.  0.  0
  libswscale      5.  7.100 /  5.  7.100
  libswresample   3.  7.100 /  3.  7.100
  libpostproc    55.  7.100 / 55.  7.100
Input #0, rtsp, from 'rtsp://user:password@192.168.0.15:554/live/ch1':
  Metadata:
    title           : streamed by RTSP server
  Duration: N/A, start: 0.000000, bitrate: N/A
    Stream #0:0: Video: h264 (High), yuv420p(tv, bt709, progressive), 640x360, 15 fps, 15 tbr, 90k tbn, 30 tbc
    Stream #0:1: Audio: aac (LC), 8000 Hz, mono, fltp
Stream mapping:
  Stream #0:0 -> #0:0 (h264 (native) -> h264 (libx264))
  Stream #0:1 -> #0:1 (copy)
Press [q] to stop, [?] for help
[libx264 @ 0xaaaae1984910] VBV bufsize set but maxrate unspecified, ignored
[libx264 @ 0xaaaae1984910] using cpu capabilities: ARMv8 NEON
[libx264 @ 0xaaaae1984910] profile Constrained Baseline, level 2.2, 4:2:0, 8-bit
[libx264 @ 0xaaaae1984910] 264 - core 160 r3011 cde9a93 - H.264/MPEG-4 AVC codec - Copyleft 2003-2020 - http://www.videolan.org/x264.html - options: cabac=0 ref=1 deblock=0:0:0 analyse=0:0 me=dia subme=0 psy=1 psy_rd=1.00:0.00 mixed_ref=0 me_range=16 chroma_me=1 trellis=0 8x8dct=0 cqm=0 deadzone=21,11 fast_pskip=1 chroma_qp_offset=0 threads=4 lookahead_threads=4 sliced_threads=1 slices=4 nr=0 decimate=1 interlaced=0 bluray_compat=0 constrained_intra=0 bframes=0 weightp=0 keyint=30 keyint_min=3 scenecut=0 intra_refresh=0 rc=crf mbtree=0 crf=23.0 qcomp=0.60 qpmin=0 qpmax=69 qpstep=4 ip_ratio=1.40 aq=0
Output #0, flv, to 'rtmp://127.0.0.1/live/mystream':
  Metadata:
    title           : streamed by RTSP server
    encoder         : Lavf58.45.100
    Stream #0:0: Video: h264 (libx264) ([7][0][0][0] / 0x0007), yuv420p, 640x360, q=-1--1, 15 fps, 1k tbn, 15 tbc
    Metadata:
      encoder         : Lavc58.91.100 libx264
    Side data:
      cpb: bitrate max/min/avg: 0/0/0 buffer size: 500000 vbv_delay: N/A
    Stream #0:1: Audio: aac (LC) ([10][0][0][0] / 0x000A), 8000 Hz, mono, fltp
frame=   30 fps=0.0 q=10.0 size=      50kB time=00:00:02.68 bitrate= 153.2kbits/s dup=0 drop=5 speed=4.88x    frame=   39 fps= 36 q=11.0 size=      80kB time=00:00:03.20 bitrate= 203.5kbits/s dup=0 drop=5 speed=2.93x    frame=   47 fps= 29 q=11.0 size=     101kB time=00:00:03.68 bitrate= 223.8kbits/s dup=0 drop=5 speed=2.29x    frame=   53 fps= 25 q=10.0 size=     108kB time=00:00:04.20 bitrate= 210.0kbits/s dup=0 drop=5 speed=1.99x    frame=   62 fps= 24 q=18.0 size=     139kB time=00:00:04.72 bitrate= 241.3kbits/s dup=0 drop=5 speed= 1.8x    frame=   70 fps= 22 q=10.0 size=     140kB time=00:00:05.24 bitrate= 219.3kbits/s dup=0 drop=5 speed=1.66x    frame=   77 fps= 21 q=10.0 size=     141kB time=00:00:05.88 bitrate= 196.7kbits/s dup=0 drop=5 speed=1.59x    frame=   85 fps= 20 q=10.0 size=     143kB time=00:00:06.40 bitrate= 182.7kbits/s dup=0 drop=5 speed=1.52x    frame=   93 fps= 20 q=16.0 size=     187kB time=00:00:06.88 bitrate= 222.7kbits/s dup=0 drop=5 speed=1.45x    frame=  101 fps= 19 q=10.0 size=     189kB time=00:00:07.40 bitrate= 209.1kbits/s dup=0 drop=5 speed=1.41x    frame=  108 fps= 19 q=10.0 size=     191kB time=00:00:07.92 bitrate= 197.3kbits/s dup=0 drop=5 speed=1.38x    frame=  116 fps= 18 q=11.0 size=     195kB time=00:00:08.44 bitrate= 189.0kbits/s dup=0 drop=5 speed=1.35x    frame=  124 fps= 18 q=15.0 size=     225kB time=00:00:08.96 bitrate= 205.5kbits/s dup=0 drop=5 speed=1.31x    frame=  133 fps= 18 q=13.0 size=     239kB time=00:00:09.44 bitrate= 207.6kbits/s dup=0 drop=5 speed=1.29x    frame=  140 fps= 18 q=11.0 size=     251kB time=00:00:10.08 bitrate= 204.0kbits/s dup=0 drop=5 speed=1.28x    frame=  148 fps= 18 q=10.0 size=     261kB time=00:00:10.60 bitrate= 201.9kbits/s dup=0 drop=5 speed=1.26x    frame=  156 fps= 17 q=12.0 size=     292kB time=00:00:11.12 bitrate= 214.6kbits/s dup=0 drop=5 speed=1.24x    frame=  164 fps= 17 q=10.0 size=     293kB time=00:00:11.64 bitrate= 206.2kbits/s dup=0 drop=5 speed=1.23x    frame=  172 fps= 17 q=10.0 size=     294kB time=00:00:12.16 bitrate= 198.2kbits/s dup=0 drop=5 speed=1.22x    frame=  181 fps= 17 q=9.0 size=     340kB time=00:00:12.64 bitrate= 220.2kbits/s dup=0 drop=5 speed= 1.2x    frame=  189 fps= 17 q=11.0 size=     342kB time=00:00:13.16 bitrate= 212.9kbits/s dup=0 drop=5 speed=1.19x    frame=  196 fps= 17 q=10.0 size=     344kB time=00:00:13.81 bitrate= 203.9kbits/s dup=0 drop=5 speed=1.19x    frame=  204 fps= 17 q=10.0 size=     346kB time=00:00:14.33 bitrate= 197.5kbits/s dup=0 drop=5 speed=1.18x    frame=  212 fps= 17 q=18.0 size=     376kB time=00:00:14.85 bitrate= 207.4kbits/s dup=0 drop=5 speed=1.17x    frame=  220 fps= 17 q=11.0 size=     378kB time=00:00:15.37 bitrate= 201.7kbits/s dup=0 drop=5 speed=1.16x    frame=  229 fps= 17 q=10.0 size=     405kB time=00:00:15.85 bitrate= 209.3kbits/s dup=0 drop=5 speed=1.15x    frame=  237 fps= 17 q=10.0 size=     408kB time=00:00:16.37 bitrate= 204.3kbits/s dup=0 drop=5 speed=1.15x    frame=  245 fps= 17 q=13.0 size=     438kB time=00:00:16.89 bitrate= 212.6kbits/s dup=0 drop=5 speed=1.14x    frame=  252 fps= 16 q=10.0 size=     440kB time=00:00:17.51 bitrate= 205.7kbits/s dup=0 drop=5 speed=1.14x    frame=  260 fps= 16 q=11.0 size=     442kB time=00:00:18.03 bitrate= 200.8kbits/s dup=0 drop=5 speed=1.13x    frame=  268 fps= 16 q=13.0 size=     456kB time=00:00:18.55 bitrate= 201.5kbits/s dup=0 drop=5 speed=1.13x    frame=  277 fps= 16 q=11.0 size=     489kB time=00:00:19.03 bitrate= 210.6kbits/s dup=0 drop=5 speed=1.12x    frame=  284 fps= 16 q=10.0 size=     492kB time=00:00:19.67 bitrate= 205.0kbits/s dup=0 drop=5 speed=1.13x    frame=  291 fps= 16 q=10.0 size=     495kB time=00:00:20.07 bitrate= 201.8kbits/s dup=0 drop=5 speed=1.12x    frame=  300 fps= 16 q=10.0 size=     497kB time=00:00:20.71 bitrate= 196.7kbits/s dup=0 drop=5 speed=1.12x    frame=  308 fps= 16 q=11.0 size=     528kB time=00:00:21.23 bitrate= 203.5kbits/s dup=0 drop=5 speed= 1.1x    frame=  319 fps= 16 q=10.0 size=     553kB time=00:00:21.87 bitrate= 207.3kbits/s dup=0 drop=5 speed=1.11x    frame=  327 fps= 16 q=12.0 size=     564kB time=00:00:22.39 bitrate= 206.1kbits/s dup=0 drop=5 speed=1.09x    frame=  337 fps= 16 q=11.0 size=     596kB time=00:00:23.15 bitrate= 210.8kbits/s dup=0 drop=5 speed= 1.1x    frame=  345 fps= 16 q=10.0 size=     598kB time=00:00:23.67 bitrate= 207.0kbits/s dup=0 drop=5 speed=1.09x    frame=  356 fps= 16 q=16.0 size=     608kB time=00:00:24.31 bitrate= 204.9kbits/s dup=0 drop=5 speed=1.09x    frame=  364 fps= 16 q=15.0 size=     646kB time=00:00:24.79 bitrate= 213.4kbits/s dup=0 drop=5 speed=1.09x    frame=  371 fps= 16 q=10.0 size=     648kB time=00:00:25.43 bitrate= 208.6kbits/s dup=0 drop=5 speed=1.09x    frame=  379 fps= 16 q=10.0 size=     649kB time=00:00:25.96 bitrate= 204.9kbits/s dup=0 drop=5 speed=1.09x    frame=  387 fps= 16 q=10.0 size=     651kB time=00:00:26.47 bitrate= 201.3kbits/s dup=0 drop=5 speed=1.09x    frame=  395 fps= 16 q=13.0 size=     680kB time=00:00:26.99 bitrate= 206.3kbits/s dup=0 drop=5 speed=1.09x    frame=  402 fps= 16 q=15.0 size=     690kB time=00:00:27.51 bitrate= 205.3kbits/s dup=0 drop=5 speed=1.09x    frame=  411 fps= 16 q=11.0 size=     707kB time=00:00:27.99 bitrate= 206.7kbits/s dup=0 drop=5 speed=1.08x    frame=  419 fps= 16 q=11.0 size=     715kB time=00:00:28.51 bitrate= 205.4kbits/s dup=0 drop=5 speed=1.08x    frame=  427 fps= 16 q=12.0 size=     746kB time=00:00:29.03 bitrate= 210.3kbits/s dup=0 drop=5 speed=1.08x    frame=  434 fps= 16 q=10.0 size=     748kB time=00:00:29.67 bitrate= 206.4kbits/s dup=0 drop=5 speed=1.08x    frame=  443 fps= 16 q=10.0 size=     749kB time=00:00:30.19 bitrate= 203.3kbits/s dup=0 drop=5 speed=1.08x    frame=  450 fps= 16 q=11.0 size=     767kB time=00:00:30.71 bitrate= 204.6kbits/s dup=0 drop=5 speed=1.08x    frame=  459 fps= 16 q=11.0 size=     795kB time=00:00:31.19 bitrate= 208.7kbits/s dup=0 drop=5 speed=1.07x    frame=  467 fps= 16 q=11.0 size=     797kB time=00:00:31.71 bitrate= 205.8kbits/s dup=0 drop=5 speed=1.07x    frame=  475 fps= 16 q=10.0 size=     799kB time=00:00:32.24 bitrate= 203.0kbits/s dup=0 drop=5 speed=1.07x    frame=  482 fps= 16 q=18.0 size=     829kB time=00:00:32.88 bitrate= 206.4kbits/s dup=0 drop=5 speed=1.07x    frame=  490 fps= 16 q=11.0 size=     830kB time=00:00:33.40 bitrate= 203.6kbits/s dup=0 drop=5 speed=1.07x    frame=  498 fps= 16 q=11.0 size=     851kB time=00:00:33.92 bitrate= 205.5kbits/s dup=0 drop=5 speed=1.07x    frame=  507 fps= 16 q=10.0 size=     858kB time=00:00:34.40 bitrate= 204.4kbits/s dup=0 drop=5 speed=1.07x    frame=  515 fps= 16 q=13.0 size=     888kB time=00:00:34.92 bitrate= 208.3kbits/s dup=0 drop=5 speed=1.06x    frame=  523 fps= 16 q=10.0 size=     889kB time=00:00:35.44 bitrate= 205.5kbits/s dup=0 drop=5 speed=1.06x    frame=  530 fps= 16 q=10.0 size=     890kB time=00:00:36.08 bitrate= 202.1kbits/s dup=0 drop=5 speed=1.06x    frame=  538 fps= 16 q=13.0 size=     902kB time=00:00:36.60 bitrate= 201.9kbits/s dup=0 drop=5 speed=1.06x    frame=  546 fps= 16 q=12.0 size=     935kB time=00:00:37.12 bitrate= 206.3kbits/s dup=0 drop=5 speed=1.06x    frame=  555 fps= 16 q=11.0 size=     939kB time=00:00:37.60 bitrate= 204.5kbits/s dup=0 drop=5 speed=1.06x    frame=  563 fps= 16 q=10.0 size=     942kB time=00:00:38.12 bitrate= 202.4kbits/s dup=0 drop=5 speed=1.06x    frame=  571 fps= 16 q=8.0 size=     971kB time=00:00:38.64 bitrate= 205.8kbits/s dup=0 drop=5 speed=1.06x    frame=  578 fps= 16 q=11.0 size=     972kB time=00:00:39.28 bitrate= 202.6kbits/s dup=0 drop=5 speed=1.06x    frame=  586 fps= 16 q=11.0 size=     990kB time=00:00:39.68 bitrate= 204.4kbits/s dup=0 drop=5 speed=1.05x    frame=  594 fps= 16 q=11.0 size=    1000kB time=00:00:40.32 bitrate= 203.2kbits/s dup=0 drop=5 speed=1.05x    frame=  604 fps= 16 q=14.0 size=    1032kB time=00:00:40.96 bitrate= 206.4kbits/s dup=0 drop=5 speed=1.06x    frame=  613 fps= 16 q=11.0 size=    1035kB time=00:00:41.44 bitrate= 204.5kbits/s dup=0 drop=5 speed=1.05x    frame=  621 fps= 16 q=11.0 size=    1037kB time=00:00:41.96 bitrate= 202.5kbits/s dup=0 drop=5 speed=1.05x    frame=  628 fps= 16 q=13.0 size=    1052kB time=00:00:42.60 bitrate= 202.3kbits/s dup=0 drop=5 speed=1.05x    frame=  636 fps= 15 q=12.0 size=    1085kB time=00:00:43.12 bitrate= 206.2kbits/s dup=0 drop=5 speed=1.05x    frame=  648 fps= 16 q=10.0 size=    1090kB time=00:00:43.76 bitrate= 204.0kbits/s dup=0 drop=5 speed=1.05x    frame=  655 fps= 16 q=12.0 size=    1098kB time=00:00:44.40 bitrate= 202.5kbits/s dup=0 drop=5 speed=1.05x    frame=  663 fps= 15 q=16.0 size=    1128kB time=00:00:44.92 bitrate= 205.6kbits/s dup=0 drop=5 speed=1.05x    frame=  673 fps= 16 q=13.0 size=    1143kB time=00:00:45.44 bitrate= 206.1kbits/s dup=0 drop=5 speed=1.05x    frame=  678 fps= 15 q=11.0 size=    1152kB time=00:00:45.92 bitrate= 205.5kbits/s dup=0 drop=5 speed=1.03x    frame=  696 fps= 15 q=12.0 size=    1189kB time=00:00:46.96 bitrate= 207.5kbits/s dup=0 drop=5 speed=1.04x    frame=  707 fps= 16 q=11.0 size=    1191kB time=00:00:47.72 bitrate= 204.5kbits/s dup=0 drop=5 speed=1.05x    frame=  715 fps= 15 q=11.0 size=    1195kB time=00:00:48.24 bitrate= 202.9kbits/s dup=0 drop=5 speed=1.05x    frame=  722 fps= 15 q=18.0 size=    1238kB time=00:00:48.89 bitrate= 207.5kbits/s dup=0 drop=5 speed=1.05x    frame=  730 fps= 15 q=11.0 size=    1240kB time=00:00:49.40 bitrate= 205.6kbits/s dup=0 drop=5 speed=1.05x    frame=  738 fps= 15 q=11.0 size=    1247kB time=00:00:49.93 bitrate= 204.6kbits/s dup=0 drop=5 speed=1.05x    frame=  746 fps= 15 q=11.0 size=    1250kB time=00:00:50.41 bitrate= 203.1kbits/s dup=0 drop=5 speed=1.04x    frame=  754 fps= 15 q=15.0 size=    1280kB time=00:00:50.93 bitrate= 205.9kbits/s dup=0 drop=5 speed=1.04x    frame=  761 fps= 15 q=16.0 size=    1289kB time=00:00:51.45 bitrate= 205.3kbits/s dup=0 drop=5 speed=1.04x    frame=  770 fps= 15 q=10.0 size=    1308kB time=00:00:52.09 bitrate= 205.7kbits/s dup=0 drop=5 speed=1.04x    frame=  778 fps= 15 q=10.0 size=    1311kB time=00:00:52.61 bitrate= 204.1kbits/s dup=0 drop=5 speed=1.04x    frame=  786 fps= 15 q=12.0 size=    1340kB time=00:00:53.13 bitrate= 206.7kbits/s dup=0 drop=5 speed=1.04x    frame=  794 fps= 15 q=11.0 size=    1343kB time=00:00:53.61 bitrate= 205.2kbits/s dup=0 drop=5 speed=1.04x    frame=  802 fps= 15 q=10.0 size=    1345kB time=00:00:54.13 bitrate= 203.6kbits/s dup=0 drop=5 speed=1.04x    frame=  809 fps= 15 q=12.0 size=    1360kB time=00:00:54.65 bitrate= 203.9kbits/s dup=0 drop=5 speed=1.04x    frame=  817 fps= 15 q=11.0 size=    1391kB time=00:00:55.17 bitrate= 206.5kbits/s dup=0 drop=5 speed=1.04x    frame=  825 fps= 15 q=10.0 size=    1392kB time=00:00:55.69 bitrate= 204.8kbits/s dup=0 drop=5 speed=1.04x    frame=  834 fps= 15 q=10.0 size=    1394kB time=00:00:56.17 bitrate= 203.3kbits/s dup=0 drop=5 speed=1.04x    frame=  841 fps= 15 q=8.0 size=    1423kB time=00:00:56.79 bitrate= 205.3kbits/s dup=0 drop=5 speed=1.04x    frame=  849 fps= 15 q=13.0 size=    1429kB time=00:00:57.31 bitrate= 204.2kbits/s dup=0 drop=5 speed=1.04x    frame=  857 fps= 15 q=11.0 size=    1450kB time=00:00:57.83 bitrate= 205.4kbits/s dup=0 drop=5 speed=1.04x    frame=  865 fps= 15 q=11.0 size=    1459kB time=00:00:58.35 bitrate= 204.8kbits/s dup=0 drop=5 speed=1.04x    frame=  873 fps= 15 q=16.0 size=    1488kB time=00:00:58.87 bitrate= 207.0kbits/s dup=0 drop=5 speed=1.04x    frame=  882 fps= 15 q=10.0 size=    1489kB time=00:00:59.35 bitrate= 205.6kbits/s dup=0 drop=5 speed=1.04x    frame=  889 fps= 15 q=10.0 size=    1491kB time=00:00:59.99 bitrate= 203.6kbits/s dup=0 drop=5 speed=1.04x    frame=  897 fps= 15 q=15.0 size=    1499kB time=00:01:00.51 bitrate= 203.0kbits/s dup=0 drop=5 speed=1.04x    frame=  901 fps= 15 q=9.0 size=    1535kB time=00:01:00.79 bitrate= 206.8kbits/s dup=0 drop=5 speed=1.01x    frame=  935 fps= 15 q=13.0 size=    1569kB time=00:01:03.07 bitrate= 203.8kbits/s dup=0 drop=5 speed=1.04x    frame=  943 fps= 15 q=13.0 size=    1582kB time=00:01:03.59 bitrate= 203.7kbits/s dup=0 drop=5 speed=1.04x    frame=  951 fps= 15 q=11.0 size=    1594kB time=00:01:04.11 bitrate= 203.7kbits/s dup=0 drop=5 speed=1.03x    frame=  959 fps= 15 q=10.0 size=    1606kB time=00:01:04.63 bitrate= 203.5kbits/s dup=0 drop=5 speed=1.03x    frame=  968 fps= 15 q=11.0 size=    1638kB time=00:01:05.11 bitrate= 206.1kbits/s dup=0 drop=5 speed=1.03x    frame=  976 fps= 15 q=10.0 size=    1640kB time=00:01:05.63 bitrate= 204.7kbits/s dup=0 drop=5 speed=1.03x    frame=  983 fps= 15 q=13.0 size=    1647kB time=00:01:06.27 bitrate= 203.5kbits/s dup=0 drop=5 speed=1.03x    frame=  991 fps= 15 q=9.0 size=    1691kB time=00:01:06.79 bitrate= 207.4kbits/s dup=0 drop=5 speed=1.03x    frame=  999 fps= 15 q=12.0 size=    1695kB time=00:01:07.31 bitrate= 206.3kbits/s dup=0 drop=5 speed=1.03x    frame= 1007 fps= 15 q=11.0 size=    1702kB time=00:01:07.83 bitrate= 205.6kbits/s dup=0 drop=5 speed=1.03x    frame= 1016 fps= 15 q=10.0 size=    1706kB time=00:01:08.31 bitrate= 204.6kbits/s dup=0 drop=5 speed=1.03x    frame= 1024 fps= 15 q=15.0 size=    1736kB time=00:01:08.83 bitrate= 206.6kbits/s dup=0 drop=5 speed=1.03x    frame= 1031 fps= 15 q=16.0 size=    1745kB time=00:01:09.47 bitrate= 205.7kbits/s dup=0 drop=5 speed=1.03x    frame= 1039 fps= 15 q=10.0 size=    1763kB time=00:01:10.00 bitrate= 206.3kbits/s dup=0 drop=5 speed=1.03x    frame= 1047 fps= 15 q=10.0 size=    1766kB time=00:01:10.52 bitrate= 205.2kbits/s dup=0 drop=5 speed=1.03x    frame= 1055 fps= 15 q=13.0 size=    1796kB time=00:01:11.04 bitrate= 207.2kbits/s dup=0 drop=5 speed=1.03x    frame= 1064 fps= 15 q=10.0 size=    1799kB time=00:01:11.52 bitrate= 206.0kbits/s dup=0 drop=5 speed=1.03x    frame= 1072 fps= 15 q=10.0 size=    1800kB time=00:01:12.04 bitrate= 204.7kbits/s dup=0 drop=5 speed=1.03x    frame= 1079 fps= 15 q=12.0 size=    1815kB time=00:01:12.68 bitrate= 204.6kbits/s dup=0 drop=5 speed=1.03x    frame= 1087 fps= 15 q=11.0 size=    1846kB time=00:01:13.20 bitrate= 206.6kbits/s dup=0 drop=5 speed=1.03x    frame= 1095 fps= 15 q=11.0 size=    1849kB time=00:01:13.72 bitrate= 205.5kbits/s dup=0 drop=5 speed=1.03x    frame= 1103 fps= 15 q=10.0 size=    1851kB time=00:01:14.24 bitrate= 204.3kbits/s dup=0 drop=5 speed=1.03x    frame= 1112 fps= 15 q=18.0 size=    1881kB time=00:01:14.72 bitrate= 206.2kbits/s dup=0 drop=5 speed=1.03x    frame= 1120 fps= 15 q=10.0 size=    1883kB time=00:01:15.24 bitrate= 205.0kbits/s dup=0 drop=5 speed=1.03x    frame= 1127 fps= 15 q=11.0 size=    1902kB time=00:01:15.88 bitrate= 205.3kbits/s dup=0 drop=5 speed=1.03x    frame= 1135 fps= 15 q=10.0 size=    1908kB time=00:01:16.40 bitrate= 204.6kbits/s dup=0 drop=5 speed=1.03x    frame= 1143 fps= 15 q=16.0 size=    1939kB time=00:01:16.92 bitrate= 206.5kbits/s dup=0 drop=5 speed=1.03x    frame= 1151 fps= 15 q=11.0 size=    1942kB time=00:01:17.44 bitrate= 205.5kbits/s dup=0 drop=5 speed=1.03x    frame= 1160 fps= 15 q=11.0 size=    1945kB time=00:01:17.92 bitrate= 204.5kbits/s dup=0 drop=5 speed=1.03x    frame= 1168 fps= 15 q=13.0 size=    1959kB time=00:01:18.44 bitrate= 204.6kbits/s dup=0 drop=5 speed=1.03x    frame= 1176 fps= 15 q=13.0 size=    1994kB time=00:01:18.96 bitrate= 206.8kbits/s dup=0 drop=5 speed=1.03x    frame= 1183 fps= 15 q=11.0 size=    2002kB time=00:01:19.60 bitrate= 206.0kbits/s dup=0 drop=5 speed=1.03x    frame= 1191 fps= 15 q=10.0 size=    2006kB time=00:01:20.12 bitrate= 205.1kbits/s dup=0 drop=5 speed=1.03x    frame= 1201 fps= 15 q=9.0 size=    2036kB time=00:01:20.64 bitrate= 206.8kbits/s dup=0 drop=5 speed=1.03x    frame= 1209 fps= 15 q=11.0 size=    2037kB time=00:01:21.12 bitrate= 205.7kbits/s dup=0 drop=5 speed=1.02x    frame= 1218 fps= 15 q=11.0 size=    2059kB time=00:01:21.92 bitrate= 205.9kbits/s dup=0 drop=5 speed=1.03x    frame= 1227 fps= 15 q=10.0 size=    2066kB time=00:01:22.40 bitrate= 205.4kbits/s dup=0 drop=5 speed=1.02x    frame= 1237 fps= 15 q=11.0 size=    2096kB time=00:01:23.20 bitrate= 206.4kbits/s dup=0 drop=5 speed=1.03x    frame= 1245 fps= 15 q=10.0 size=    2098kB time=00:01:23.69 bitrate= 205.3kbits/s dup=0 drop=5 speed=1.02x    frame= 1257 fps= 15 q=14.0 size=    2109kB time=00:01:24.32 bitrate= 204.9kbits/s dup=0 drop=5 speed=1.02x    frame= 1264 fps= 15 q=15.0 size=    2143kB time=00:01:24.96 bitrate= 206.6kbits/s dup=0 drop=5 speed=1.03x    frame= 1272 fps= 15 q=10.0 size=    2145kB time=00:01:25.49 bitrate= 205.5kbits/s dup=0 drop=5 speed=1.03x    frame= 1280 fps= 15 q=11.0 size=    2148kB time=00:01:26.00 bitrate= 204.6kbits/s dup=0 drop=5 speed=1.03x    frame= 1288 fps= 15 q=10.0 size=    2150kB time=00:01:26.52 bitrate= 203.6kbits/s dup=0 drop=5 speed=1.03x    frame= 1296 fps= 15 q=12.0 size=    2179kB time=00:01:27.04 bitrate= 205.1kbits/s dup=0 drop=5 speed=1.03x    frame= 1304 fps= 15 q=12.0 size=    2194kB time=00:01:27.53 bitrate= 205.4kbits/s dup=0 drop=5 speed=1.02x    frame= 1312 fps= 15 q=10.0 size=    2205kB time=00:01:28.05 bitrate= 205.2kbits/s dup=0 drop=5 speed=1.02x    frame= 1320 fps= 15 q=11.0 size=    2210kB time=00:01:28.57 bitrate= 204.4kbits/s dup=0 drop=5 speed=1.02x    frame= 1327 fps= 15 q=11.0 size=    2241kB time=00:01:29.21 bitrate= 205.8kbits/s dup=0 drop=5 speed=1.03x    frame= 1335 fps= 15 q=10.0 size=    2243kB time=00:01:29.73 bitrate= 204.8kbits/s dup=0 drop=5 speed=1.02x    frame= 1343 fps= 15 q=10.0 size=    2244kB time=00:01:30.25 bitrate= 203.7kbits/s dup=0 drop=5 speed=1.02x    frame= 1351 fps= 15 q=9.0 size=    2288kB time=00:01:30.73 bitrate= 206.6kbits/s dup=0 drop=5 speed=1.02x    frame= 1358 fps= 15 q=11.0 size=    2289kB time=00:01:31.25 bitrate= 205.5kbits/s dup=0 drop=5 speed=1.02x    